<svg xmlns="http://www.w3.org/2000/svg" viewBox="0 0 134.6 162.79"><defs><style>.cls-1{fill:#fff;}.cls-2{fill:#ff635f;}</style></defs><title>logo</title><g id="Calque_2" data-name="Calque 2"><g id="Calque_2-2" data-name="Calque 2"><path class="cls-1" d="M90.75,109.78v34.64H79.31V109.78H74.1V99.93H96v9.85Z"/><path class="cls-1" d="M108.79,145.12c-8.26,0-12.58-4.77-12.58-22.94s4.32-23,12.58-23,12.59,4.77,12.59,23S117.06,145.12,108.79,145.12Zm0-36c-.69,0-1,.57-1,13.1s.26,13.09,1,13.09,1-.58,1-13.09S109.49,109.08,108.79,109.08Z"/><path class="cls-1" d="M123.16,144.42V99.93H134.6v44.49Z"/><path class="cls-2" d="M13.64,144.42v-18.5h-1.9v18.5H.3V99.93H11.74v15.83h1.9V99.93H25.08v44.49Z"/><path class="cls-2" d="M27.12,144.42V99.93H47v9.85H38.56v6.29h6.86v9.73H38.56v8.77h8.51v9.85Z"/><path class="cls-2" d="M66.2,127.26v17.16H54.76V127.26L47.39,99.93H58.77l.57,4.77c.57,5,1.14,9.47,1.27,13.34.13-3.87.7-8.39,1.27-13.34l.57-4.77H73.57Z"/><path class="cls-2" d="M3.59,160a3.92,3.92,0,0,1-.16,1.18A2.41,2.41,0,0,1,3,162a2.11,2.11,0,0,1-.78.56,2.71,2.71,0,0,1-1.06.19A4.35,4.35,0,0,1,0,162.63l0-.32c0-.1,0-.21,0-.31a.26.26,0,0,1,.07-.15.24.24,0,0,1,.18-.06,1,1,0,0,1,.26.05,1.72,1.72,0,0,0,.44,0,1.88,1.88,0,0,0,.65-.11,1.17,1.17,0,0,0,.48-.34,1.63,1.63,0,0,0,.29-.59,3.13,3.13,0,0,0,.1-.86v-5.18H3.59Z"/><path class="cls-2" d="M8.56,161.85a2.23,2.23,0,0,0,.88-.17,1.88,1.88,0,0,0,.65-.46,2.17,2.17,0,0,0,.41-.71,2.94,2.94,0,0,0,.14-.91v-4.79H11.7v4.79a3.49,3.49,0,0,1-.22,1.27,3,3,0,0,1-.62,1,2.87,2.87,0,0,1-1,.66,3.4,3.4,0,0,1-1.31.25,3.44,3.44,0,0,1-1.31-.25,3.07,3.07,0,0,1-1-.66,3.16,3.16,0,0,1-.62-1,3.72,3.72,0,0,1-.22-1.27v-4.79H6.48v4.79a2.83,2.83,0,0,0,.14.9,2.07,2.07,0,0,0,.41.71,2,2,0,0,0,.66.47A2.18,2.18,0,0,0,8.56,161.85Z"/><path class="cls-2" d="M17.64,156a.34.34,0,0,1-.1.13.33.33,0,0,1-.14,0,.33.33,0,0,1-.22-.1,3.71,3.71,0,0,0-.32-.2,2.19,2.19,0,0,0-.46-.21,2,2,0,0,0-.64-.09,2,2,0,0,0-.63.09,1.3,1.3,0,0,0-.46.27,1.17,1.17,0,0,0-.28.38,1.28,1.28,0,0,0-.09.48.88.88,0,0,0,.16.55,1.3,1.3,0,0,0,.43.37,3.12,3.12,0,0,0,.61.27l.69.23a7.1,7.1,0,0,1,.69.28,2.24,2.24,0,0,1,.61.38,1.71,1.71,0,0,1,.43.56,2,2,0,0,1,.16.83,2.61,2.61,0,0,1-.18,1,2.2,2.2,0,0,1-.51.79,2.52,2.52,0,0,1-.83.53,3,3,0,0,1-1.12.19,3.33,3.33,0,0,1-1.4-.28,3.14,3.14,0,0,1-1.07-.75l.31-.5a.52.52,0,0,1,.1-.11.37.37,0,0,1,.14,0,.32.32,0,0,1,.17.06l.2.15.27.19a2.43,2.43,0,0,0,.77.34,2.26,2.26,0,0,0,.54,0,2.07,2.07,0,0,0,.68-.1,1.53,1.53,0,0,0,.5-.29A1.36,1.36,0,0,0,17,161a1.55,1.55,0,0,0,.11-.59,1,1,0,0,0-.16-.58,1.32,1.32,0,0,0-.43-.38,3.12,3.12,0,0,0-.61-.27l-.69-.22a5.74,5.74,0,0,1-.69-.26,2.24,2.24,0,0,1-.61-.38,1.81,1.81,0,0,1-.42-.59,2.09,2.09,0,0,1-.17-.88,2.06,2.06,0,0,1,.17-.81,1.89,1.89,0,0,1,.47-.69,2.37,2.37,0,0,1,.76-.49,2.85,2.85,0,0,1,1.05-.18,3.29,3.29,0,0,1,1.2.21,2.72,2.72,0,0,1,.95.61Z"/><path class="cls-2" d="M24.91,155.71H22.36v7H21.3v-7H18.74v-.9h6.17Z"/><path class="cls-2" d="M30.94,161.82v.87H26.08v-7.88h4.85v.87H27.14v2.62h3.07v.83H27.14v2.69Z"/><path class="cls-2" d="M54.71,155.71H52.16v7H51.09v-7H48.54v-.9h6.17Z"/><path class="cls-2" d="M62.8,158.75a4.5,4.5,0,0,1-.28,1.63,3.59,3.59,0,0,1-.79,1.27,3.52,3.52,0,0,1-1.23.83,4,4,0,0,1-1.58.29,4.09,4.09,0,0,1-1.59-.29,3.57,3.57,0,0,1-1.22-.83,3.61,3.61,0,0,1-.8-1.27,4.72,4.72,0,0,1-.28-1.63,4.67,4.67,0,0,1,.28-1.62,3.62,3.62,0,0,1,2-2.11,4.09,4.09,0,0,1,1.59-.3,4,4,0,0,1,1.58.3,3.66,3.66,0,0,1,1.23.83,3.73,3.73,0,0,1,.79,1.28A4.45,4.45,0,0,1,62.8,158.75Zm-1.09,0a4.08,4.08,0,0,0-.2-1.3,2.77,2.77,0,0,0-.56-1,2.4,2.4,0,0,0-.88-.61,3,3,0,0,0-1.15-.21,3,3,0,0,0-1.15.21,2.52,2.52,0,0,0-.89.61,2.77,2.77,0,0,0-.56,1,4.08,4.08,0,0,0-.2,1.3,4,4,0,0,0,.2,1.3,2.77,2.77,0,0,0,.56,1,2.52,2.52,0,0,0,.89.61,3,3,0,0,0,1.15.21,3,3,0,0,0,1.15-.21A2.4,2.4,0,0,0,61,161a2.77,2.77,0,0,0,.56-1A4,4,0,0,0,61.71,158.75Z"/><path class="cls-2" d="M65.39,162.69H64.33v-7.88h1.06Z"/><path class="cls-2" d="M93.34,162.69h-1a.65.65,0,0,1-.26,0,.56.56,0,0,1-.21-.16l-.8-.8a4.22,4.22,0,0,1-1.19.8,3.76,3.76,0,0,1-1.48.29,2.51,2.51,0,0,1-.86-.15,2.27,2.27,0,0,1-.76-.43,2.3,2.3,0,0,1-.54-.69,2.16,2.16,0,0,1,.29-2.28,2.72,2.72,0,0,1,.54-.53,3.85,3.85,0,0,1,.69-.39,3.39,3.39,0,0,1-.5-.83,2.35,2.35,0,0,1-.16-.83,1.9,1.9,0,0,1,.15-.75,1.75,1.75,0,0,1,.42-.61,1.91,1.91,0,0,1,.67-.42,2.46,2.46,0,0,1,.88-.15,2.18,2.18,0,0,1,.79.14,2.22,2.22,0,0,1,.62.37,1.93,1.93,0,0,1,.41.54,1.6,1.6,0,0,1,.17.64l-.61.12c-.12,0-.21,0-.27-.17a.94.94,0,0,0-.12-.3,1.18,1.18,0,0,0-.22-.28.93.93,0,0,0-.33-.21,1,1,0,0,0-.44-.08,1.59,1.59,0,0,0-.5.08,1.25,1.25,0,0,0-.38.25,1.18,1.18,0,0,0-.24.37,1.34,1.34,0,0,0-.08.46,1.5,1.5,0,0,0,.05.37,1.42,1.42,0,0,0,.14.35,1.94,1.94,0,0,0,.24.37,4.18,4.18,0,0,0,.36.4l2.26,2.3a3.84,3.84,0,0,0,.34-.78,3.66,3.66,0,0,0,.16-.8.29.29,0,0,1,.07-.17.21.21,0,0,1,.16-.06h.59a4,4,0,0,1-.19,1.24,4.32,4.32,0,0,1-.56,1.14Zm-5.08-3.88a2.27,2.27,0,0,0-.88.75,1.71,1.71,0,0,0-.29.95,1.39,1.39,0,0,0,.13.63,1.34,1.34,0,0,0,.35.46,1.42,1.42,0,0,0,.49.29,1.77,1.77,0,0,0,.56.09,2.57,2.57,0,0,0,1.1-.22,3,3,0,0,0,.87-.61Z"/><path class="cls-2" d="M121.84,154.81v7.88h-.93V156.9a2.18,2.18,0,0,1,0-.25,2.65,2.65,0,0,1,0-.27l-2.71,4.93a.4.4,0,0,1-.38.25h-.16a.4.4,0,0,1-.38-.25l-2.76-4.95q0,.3,0,.54v5.79h-.94v-7.88h.79a.61.61,0,0,1,.22,0,.35.35,0,0,1,.15.15l2.72,4.85a2.39,2.39,0,0,1,.13.28l.12.29c0-.1.07-.2.11-.3s.09-.18.14-.27l2.67-4.85a.29.29,0,0,1,.14-.15.71.71,0,0,1,.23,0Z"/><path class="cls-2" d="M131.14,158.75a4.72,4.72,0,0,1-.28,1.63,3.74,3.74,0,0,1-.79,1.27,3.52,3.52,0,0,1-1.23.83,4.09,4.09,0,0,1-1.59.29,4,4,0,0,1-1.58-.29,3.52,3.52,0,0,1-1.23-.83,3.59,3.59,0,0,1-.79-1.27,4.5,4.5,0,0,1-.28-1.63,4.45,4.45,0,0,1,.28-1.62,3.73,3.73,0,0,1,.79-1.28,3.66,3.66,0,0,1,1.23-.83,4,4,0,0,1,1.58-.3,4.09,4.09,0,0,1,1.59.3,3.66,3.66,0,0,1,1.23.83,3.89,3.89,0,0,1,.79,1.28A4.67,4.67,0,0,1,131.14,158.75Zm-1.1,0a4.08,4.08,0,0,0-.19-1.3,2.93,2.93,0,0,0-.56-1,2.58,2.58,0,0,0-.88-.61,3.28,3.28,0,0,0-2.31,0,2.49,2.49,0,0,0-.88.61,2.78,2.78,0,0,0-.57,1,4.08,4.08,0,0,0-.19,1.3,4,4,0,0,0,.19,1.3,2.78,2.78,0,0,0,.57,1,2.49,2.49,0,0,0,.88.61,3.28,3.28,0,0,0,2.31,0,2.58,2.58,0,0,0,.88-.61,2.93,2.93,0,0,0,.56-1A4,4,0,0,0,130,158.75Z"/><path class="cls-2" d="M133.73,162.69h-1.07v-7.88h1.07Z"/><path class="cls-2" d="M67.48,0A40,40,0,0,0,34.75,63l13.92-9a23.46,23.46,0,1,1,18.81,9.46H35.1A40,40,0,1,0,67.48,0Z"/><polygon class="cls-2" points="54.98 50.42 54.98 39.28 59.79 29.58 65.78 29.58 61.81 38.95 62.06 39.28 65.94 39.28 65.94 50.42 54.98 50.42"/><polygon class="cls-2" points="69.01 50.42 69.01 39.28 73.82 29.58 79.81 29.58 75.85 38.95 76.1 39.28 79.98 39.28 79.98 50.42 69.01 50.42"/></g></g></svg>