<svg xmlns="http://www.w3.org/2000/svg" viewBox="0 0 30 24.72"><defs><style>.cls-1{fill:#ff635f;}</style></defs><title>bulle1</title><g id="Calque_2" data-name="Calque 2"><g id="Calque_2-2" data-name="Calque 2"><path class="cls-1" d="M12.36,1.05a11.3,11.3,0,0,1,9.06,18.06l-.68.9,1,.61,4.73,3.05H12.36a11.31,11.31,0,0,1,0-22.62m0-1a12.36,12.36,0,0,0,0,24.72H30l-7.74-5A12.35,12.35,0,0,0,12.36,0Z"/><polygon class="cls-1" points="5.38 17.84 5.38 11.98 7.91 6.88 11.06 6.88 8.97 11.81 9.11 11.98 11.15 11.98 11.15 17.84 5.38 17.84"/><polygon class="cls-1" points="12.77 17.84 12.77 11.98 15.3 6.88 18.45 6.88 16.36 11.81 16.5 11.98 18.54 11.98 18.54 17.84 12.77 17.84"/></g></g></svg>