<?xml version="1.0" encoding="UTF-8"?>
<!DOCTYPE svg PUBLIC "-//W3C//DTD SVG 1.1//EN" "http://www.w3.org/Graphics/SVG/1.1/DTD/svg11.dtd">
<svg version="1.1" xmlns="http://www.w3.org/2000/svg" xmlns:xlink="http://www.w3.org/1999/xlink" x="0" y="0" width="100" height="100" viewBox="0, 0, 100, 100">
  <g id="Layer_1">
    <path d="M49.978,9.997 C35.049,9.995 21.361,18.308 14.479,31.556 C7.596,44.804 8.664,60.782 17.248,72.997 L31.168,63.997 C24.68,55.272 25.036,43.233 32.029,34.907 C39.023,26.582 50.82,24.153 60.533,29.038 C70.247,33.923 75.331,44.842 72.817,55.42 C70.303,65.999 60.851,73.463 49.978,73.457 L17.598,73.457 C28.681,88.762 48.962,94.223 66.232,86.553 C83.502,78.883 93.048,60.174 89.124,41.689 C85.199,23.205 68.875,9.988 49.978,9.997 z" fill="#FF635F"/>
    <path d="M37.478,60.417 L37.478,49.277 L42.288,39.577 L48.278,39.577 L44.308,48.947 L44.558,49.277 L48.438,49.277 L48.438,60.417 L37.478,60.417 z" fill="#FF635F"/>
    <path d="M51.508,60.417 L51.508,49.277 L56.318,39.577 L62.308,39.577 L58.348,48.947 L58.598,49.277 L62.478,49.277 L62.478,60.417 L51.508,60.417 z" fill="#FF635F"/>
  </g>
</svg>
