<svg xmlns="http://www.w3.org/2000/svg" viewBox="0 0 30 24.72"><defs><style>.cls-1{fill:#262626;}</style></defs><title>bulle2</title><g id="Calque_2" data-name="Calque 2"><g id="Calque_2-2" data-name="Calque 2"><path class="cls-1" d="M17.64,1.05a11.31,11.31,0,0,1,0,22.62H3.58l4.73-3.05L9.26,20l-.68-.9A11.3,11.3,0,0,1,17.64,1.05m0-1a12.35,12.35,0,0,0-9.9,19.74L0,24.72H17.64A12.36,12.36,0,0,0,17.64,0Z"/><polygon class="cls-1" points="11.06 17.84 11.06 11.98 13.59 6.88 16.74 6.88 14.65 11.81 14.79 11.98 16.83 11.98 16.83 17.84 11.06 17.84"/><polygon class="cls-1" points="18.45 17.84 18.45 11.98 20.98 6.88 24.13 6.88 22.04 11.81 22.18 11.98 24.22 11.98 24.22 17.84 18.45 17.84"/></g></g></svg>